<svg xmlns="http://www.w3.org/2000/svg" viewBox="0 0 1200 400">
  <!-- Solid dark background -->
  <rect width="1200" height="400" fill="#0a0a0f"/>

  <!-- Glowing orbs (simple circles, no filter) -->
  <circle cx="150" cy="80" r="180" fill="#F5A623" opacity="0.06"/>
  <circle cx="1050" cy="320" r="220" fill="#F5A623" opacity="0.04"/>
  <circle cx="600" cy="200" r="280" fill="#F5A623" opacity="0.03"/>

  <!-- Honeycomb pattern - drawn explicitly -->
  <g fill="none" stroke="#F5A623" stroke-width="0.8" opacity="0.12">
    <!-- Row 1 -->
    <path d="M28 66L0 50L0 16L28 0L56 16L56 50Z"/>
    <path d="M84 66L56 50L56 16L84 0L112 16L112 50Z"/>
    <path d="M140 66L112 50L112 16L140 0L168 16L168 50Z"/>
    <path d="M196 66L168 50L168 16L196 0L224 16L224 50Z"/>
    <path d="M252 66L224 50L224 16L252 0L280 16L280 50Z"/>
    <path d="M308 66L280 50L280 16L308 0L336 16L336 50Z"/>
    <path d="M364 66L336 50L336 16L364 0L392 16L392 50Z"/>
    <path d="M420 66L392 50L392 16L420 0L448 16L448 50Z"/>
    <path d="M476 66L448 50L448 16L476 0L504 16L504 50Z"/>
    <path d="M532 66L504 50L504 16L532 0L560 16L560 50Z"/>
    <path d="M588 66L560 50L560 16L588 0L616 16L616 50Z"/>
    <path d="M644 66L616 50L616 16L644 0L672 16L672 50Z"/>
    <path d="M700 66L672 50L672 16L700 0L728 16L728 50Z"/>
    <path d="M756 66L728 50L728 16L756 0L784 16L784 50Z"/>
    <path d="M812 66L784 50L784 16L812 0L840 16L840 50Z"/>
    <path d="M868 66L840 50L840 16L868 0L896 16L896 50Z"/>
    <path d="M924 66L896 50L896 16L924 0L952 16L952 50Z"/>
    <path d="M980 66L952 50L952 16L980 0L1008 16L1008 50Z"/>
    <path d="M1036 66L1008 50L1008 16L1036 0L1064 16L1064 50Z"/>
    <path d="M1092 66L1064 50L1064 16L1092 0L1120 16L1120 50Z"/>
    <path d="M1148 66L1120 50L1120 16L1148 0L1176 16L1176 50Z"/>
    <!-- Row 2 (offset) -->
    <path d="M56 116L28 100L28 66L56 50L84 66L84 100Z"/>
    <path d="M112 116L84 100L84 66L112 50L140 66L140 100Z"/>
    <path d="M168 116L140 100L140 66L168 50L196 66L196 100Z"/>
    <path d="M224 116L196 100L196 66L224 50L252 66L252 100Z"/>
    <path d="M280 116L252 100L252 66L280 50L308 66L308 100Z"/>
    <path d="M336 116L308 100L308 66L336 50L364 66L364 100Z"/>
    <path d="M392 116L364 100L364 66L392 50L420 66L420 100Z"/>
    <path d="M448 116L420 100L420 66L448 50L476 66L476 100Z"/>
    <path d="M504 116L476 100L476 66L504 50L532 66L532 100Z"/>
    <path d="M560 116L532 100L532 66L560 50L588 66L588 100Z"/>
    <path d="M616 116L588 100L588 66L616 50L644 66L644 100Z"/>
    <path d="M672 116L644 100L644 66L672 50L700 66L700 100Z"/>
    <path d="M728 116L700 100L700 66L728 50L756 66L756 100Z"/>
    <path d="M784 116L756 100L756 66L784 50L812 66L812 100Z"/>
    <path d="M840 116L812 100L812 66L840 50L868 66L868 100Z"/>
    <path d="M896 116L868 100L868 66L896 50L924 66L924 100Z"/>
    <path d="M952 116L924 100L924 66L952 50L980 66L980 100Z"/>
    <path d="M1008 116L980 100L980 66L1008 50L1036 66L1036 100Z"/>
    <path d="M1064 116L1036 100L1036 66L1064 50L1092 66L1092 100Z"/>
    <path d="M1120 116L1092 100L1092 66L1120 50L1148 66L1148 100Z"/>
    <!-- Row 3 -->
    <path d="M28 166L0 150L0 116L28 100L56 116L56 150Z"/>
    <path d="M84 166L56 150L56 116L84 100L112 116L112 150Z"/>
    <path d="M140 166L112 150L112 116L140 100L168 116L168 150Z"/>
    <path d="M196 166L168 150L168 116L196 100L224 116L224 150Z"/>
    <path d="M252 166L224 150L224 116L252 100L280 116L280 150Z"/>
    <path d="M308 166L280 150L280 116L308 100L336 116L336 150Z"/>
    <path d="M364 166L336 150L336 116L364 100L392 116L392 150Z"/>
    <path d="M420 166L392 150L392 116L420 100L448 116L448 150Z"/>
    <path d="M476 166L448 150L448 116L476 100L504 116L504 150Z"/>
    <path d="M532 166L504 150L504 116L532 100L560 116L560 150Z"/>
    <path d="M588 166L560 150L560 116L588 100L616 116L616 150Z"/>
    <path d="M644 166L616 150L616 116L644 100L672 116L672 150Z"/>
    <path d="M700 166L672 150L672 116L700 100L728 116L728 150Z"/>
    <path d="M756 166L728 150L728 116L756 100L784 116L784 150Z"/>
    <path d="M812 166L784 150L784 116L812 100L840 116L840 150Z"/>
    <path d="M868 166L840 150L840 116L868 100L896 116L896 150Z"/>
    <path d="M924 166L896 150L896 116L924 100L952 116L952 150Z"/>
    <path d="M980 166L952 150L952 116L980 100L1008 116L1008 150Z"/>
    <path d="M1036 166L1008 150L1008 116L1036 100L1064 116L1064 150Z"/>
    <path d="M1092 166L1064 150L1064 116L1092 100L1120 116L1120 150Z"/>
    <path d="M1148 166L1120 150L1120 116L1148 100L1176 116L1176 150Z"/>
    <!-- Row 4 (offset) -->
    <path d="M56 216L28 200L28 166L56 150L84 166L84 200Z"/>
    <path d="M112 216L84 200L84 166L112 150L140 166L140 200Z"/>
    <path d="M168 216L140 200L140 166L168 150L196 166L196 200Z"/>
    <path d="M224 216L196 200L196 166L224 150L252 166L252 200Z"/>
    <path d="M280 216L252 200L252 166L280 150L308 166L308 200Z"/>
    <path d="M336 216L308 200L308 166L336 150L364 166L364 200Z"/>
    <path d="M392 216L364 200L364 166L392 150L420 166L420 200Z"/>
    <path d="M448 216L420 200L420 166L448 150L476 166L476 200Z"/>
    <path d="M504 216L476 200L476 166L504 150L532 166L532 200Z"/>
    <path d="M560 216L532 200L532 166L560 150L588 166L588 200Z"/>
    <path d="M616 216L588 200L588 166L616 150L644 166L644 200Z"/>
    <path d="M672 216L644 200L644 166L672 150L700 166L700 200Z"/>
    <path d="M728 216L700 200L700 166L728 150L756 166L756 200Z"/>
    <path d="M784 216L756 200L756 166L784 150L812 166L812 200Z"/>
    <path d="M840 216L812 200L812 166L840 150L868 166L868 200Z"/>
    <path d="M896 216L868 200L868 166L896 150L924 166L924 200Z"/>
    <path d="M952 216L924 200L924 166L952 150L980 166L980 200Z"/>
    <path d="M1008 216L980 200L980 166L1008 150L1036 166L1036 200Z"/>
    <path d="M1064 216L1036 200L1036 166L1064 150L1092 166L1092 200Z"/>
    <path d="M1120 216L1092 200L1092 166L1120 150L1148 166L1148 200Z"/>
    <!-- Row 5 -->
    <path d="M28 266L0 250L0 216L28 200L56 216L56 250Z"/>
    <path d="M84 266L56 250L56 216L84 200L112 216L112 250Z"/>
    <path d="M140 266L112 250L112 216L140 200L168 216L168 250Z"/>
    <path d="M196 266L168 250L168 216L196 200L224 216L224 250Z"/>
    <path d="M252 266L224 250L224 216L252 200L280 216L280 250Z"/>
    <path d="M308 266L280 250L280 216L308 200L336 216L336 250Z"/>
    <path d="M364 266L336 250L336 216L364 200L392 216L392 250Z"/>
    <path d="M420 266L392 250L392 216L420 200L448 216L448 250Z"/>
    <path d="M476 266L448 250L448 216L476 200L504 216L504 250Z"/>
    <path d="M532 266L504 250L504 216L532 200L560 216L560 250Z"/>
    <path d="M588 266L560 250L560 216L588 200L616 216L616 250Z"/>
    <path d="M644 266L616 250L616 216L644 200L672 216L672 250Z"/>
    <path d="M700 266L672 250L672 216L700 200L728 216L728 250Z"/>
    <path d="M756 266L728 250L728 216L756 200L784 216L784 250Z"/>
    <path d="M812 266L784 250L784 216L812 200L840 216L840 250Z"/>
    <path d="M868 266L840 250L840 216L868 200L896 216L896 250Z"/>
    <path d="M924 266L896 250L896 216L924 200L952 216L952 250Z"/>
    <path d="M980 266L952 250L952 216L980 200L1008 216L1008 250Z"/>
    <path d="M1036 266L1008 250L1008 216L1036 200L1064 216L1064 250Z"/>
    <path d="M1092 266L1064 250L1064 216L1092 200L1120 216L1120 250Z"/>
    <path d="M1148 266L1120 250L1120 216L1148 200L1176 216L1176 250Z"/>
    <!-- Row 6 (offset) -->
    <path d="M56 316L28 300L28 266L56 250L84 266L84 300Z"/>
    <path d="M112 316L84 300L84 266L112 250L140 266L140 300Z"/>
    <path d="M168 316L140 300L140 266L168 250L196 266L196 300Z"/>
    <path d="M224 316L196 300L196 266L224 250L252 266L252 300Z"/>
    <path d="M280 316L252 300L252 266L280 250L308 266L308 300Z"/>
    <path d="M336 316L308 300L308 266L336 250L364 266L364 300Z"/>
    <path d="M392 316L364 300L364 266L392 250L420 266L420 300Z"/>
    <path d="M448 316L420 300L420 266L448 250L476 266L476 300Z"/>
    <path d="M504 316L476 300L476 266L504 250L532 266L532 300Z"/>
    <path d="M560 316L532 300L532 266L560 250L588 266L588 300Z"/>
    <path d="M616 316L588 300L588 266L616 250L644 266L644 300Z"/>
    <path d="M672 316L644 300L644 266L672 250L700 266L700 300Z"/>
    <path d="M728 316L700 300L700 266L728 250L756 266L756 300Z"/>
    <path d="M784 316L756 300L756 266L784 250L812 266L812 300Z"/>
    <path d="M840 316L812 300L812 266L840 250L868 266L868 300Z"/>
    <path d="M896 316L868 300L868 266L896 250L924 266L924 300Z"/>
    <path d="M952 316L924 300L924 266L952 250L980 266L980 300Z"/>
    <path d="M1008 316L980 300L980 266L1008 250L1036 266L1036 300Z"/>
    <path d="M1064 316L1036 300L1036 266L1064 250L1092 266L1092 300Z"/>
    <path d="M1120 316L1092 300L1092 266L1120 250L1148 266L1148 300Z"/>
    <!-- Row 7 -->
    <path d="M28 366L0 350L0 316L28 300L56 316L56 350Z"/>
    <path d="M84 366L56 350L56 316L84 300L112 316L112 350Z"/>
    <path d="M140 366L112 350L112 316L140 300L168 316L168 350Z"/>
    <path d="M196 366L168 350L168 316L196 300L224 316L224 350Z"/>
    <path d="M252 366L224 350L224 316L252 300L280 316L280 350Z"/>
    <path d="M308 366L280 350L280 316L308 300L336 316L336 350Z"/>
    <path d="M364 366L336 350L336 316L364 300L392 316L392 350Z"/>
    <path d="M420 366L392 350L392 316L420 300L448 316L448 350Z"/>
    <path d="M476 366L448 350L448 316L476 300L504 316L504 350Z"/>
    <path d="M532 366L504 350L504 316L532 300L560 316L560 350Z"/>
    <path d="M588 366L560 350L560 316L588 300L616 316L616 350Z"/>
    <path d="M644 366L616 350L616 316L644 300L672 316L672 350Z"/>
    <path d="M700 366L672 350L672 316L700 300L728 316L728 350Z"/>
    <path d="M756 366L728 350L728 316L756 300L784 316L784 350Z"/>
    <path d="M812 366L784 350L784 316L812 300L840 316L840 350Z"/>
    <path d="M868 366L840 350L840 316L868 300L896 316L896 350Z"/>
    <path d="M924 366L896 350L896 316L924 300L952 316L952 350Z"/>
    <path d="M980 366L952 350L952 316L980 300L1008 316L1008 350Z"/>
    <path d="M1036 366L1008 350L1008 316L1036 300L1064 316L1064 350Z"/>
    <path d="M1092 366L1064 350L1064 316L1092 300L1120 316L1120 350Z"/>
    <path d="M1148 366L1120 350L1120 316L1148 300L1176 316L1176 350Z"/>
    <!-- Row 8 (offset) - bottom edge -->
    <path d="M56 416L28 400L28 366L56 350L84 366L84 400Z"/>
    <path d="M112 416L84 400L84 366L112 350L140 366L140 400Z"/>
    <path d="M168 416L140 400L140 366L168 350L196 366L196 400Z"/>
    <path d="M224 416L196 400L196 366L224 350L252 366L252 400Z"/>
    <path d="M280 416L252 400L252 366L280 350L308 366L308 400Z"/>
    <path d="M336 416L308 400L308 366L336 350L364 366L364 400Z"/>
    <path d="M392 416L364 400L364 366L392 350L420 366L420 400Z"/>
    <path d="M448 416L420 400L420 366L448 350L476 366L476 400Z"/>
    <path d="M504 416L476 400L476 366L504 350L532 366L532 400Z"/>
    <path d="M560 416L532 400L532 366L560 350L588 366L588 400Z"/>
    <path d="M616 416L588 400L588 366L616 350L644 366L644 400Z"/>
    <path d="M672 416L644 400L644 366L672 350L700 366L700 400Z"/>
    <path d="M728 416L700 400L700 366L728 350L756 366L756 400Z"/>
    <path d="M784 416L756 400L756 366L784 350L812 366L812 400Z"/>
    <path d="M840 416L812 400L812 366L840 350L868 366L868 400Z"/>
    <path d="M896 416L868 400L868 366L896 350L924 366L924 400Z"/>
    <path d="M952 416L924 400L924 366L952 350L980 366L980 400Z"/>
    <path d="M1008 416L980 400L980 366L1008 350L1036 366L1036 400Z"/>
    <path d="M1064 416L1036 400L1036 366L1064 350L1092 366L1092 400Z"/>
    <path d="M1120 416L1092 400L1092 366L1120 350L1148 366L1148 400Z"/>
  </g>

  <!-- Larger accent hexagons -->
  <g fill="none" stroke="#F5A623" stroke-width="1.5" opacity="0.25">
    <polygon points="80,150 110,133 110,98 80,81 50,98 50,133"/>
    <polygon points="1120,250 1150,233 1150,198 1120,181 1090,198 1090,233"/>
    <polygon points="1050,80 1070,68 1070,45 1050,33 1030,45 1030,68"/>
  </g>

  <!-- Logo circle (simple, no filter) -->
  <circle cx="600" cy="160" r="72" fill="none" stroke="#F5A623" stroke-width="3"/>
  <circle cx="600" cy="160" r="82" fill="none" stroke="#8B5A00" stroke-width="1" opacity="0.5"/>

  <!-- WASP2 logo image placeholder circle fill -->
  <circle cx="600" cy="160" r="68" fill="#0a0a0f"/>

  <!-- WASP2 text -->
  <text x="600" y="295" text-anchor="middle" font-family="Georgia, serif" font-size="72" font-weight="bold">
    <tspan fill="#F5A623">WASP</tspan><tspan fill="#f4f0e8">2</tspan>
  </text>

  <!-- Tagline -->
  <text x="600" y="345" text-anchor="middle" font-family="Georgia, serif" font-size="24" font-style="italic" fill="#a8a4a0" letter-spacing="2">
    Allele-Specific Analysis Pipeline
  </text>

  <!-- Floating particles -->
  <circle cx="120" cy="60" r="4" fill="#F5A623" opacity="0.7"/>
  <circle cx="280" cy="380" r="3" fill="#F5A623" opacity="0.5"/>
  <circle cx="920" cy="40" r="3.5" fill="#F5A623" opacity="0.6"/>
  <circle cx="1080" cy="300" r="4" fill="#F5A623" opacity="0.7"/>
  <circle cx="400" cy="390" r="2.5" fill="#F5A623" opacity="0.5"/>
  <circle cx="780" cy="30" r="3" fill="#F5A623" opacity="0.6"/>
  <circle cx="200" cy="320" r="2" fill="#F5A623" opacity="0.4"/>
  <circle cx="1000" cy="380" r="2.5" fill="#F5A623" opacity="0.5"/>
</svg>
